<svg width="32" height="32" viewBox="0 0 32 32" fill="none" xmlns="http://www.w3.org/2000/svg">
<g clip-path="url(#clip0_97_426)">
<path d="M9.43799 31.401C8.80709 30.9813 8.24792 30.4626 7.78199 29.865C7.26948 29.2482 6.79462 28.601 6.35999 27.927C5.34008 26.4328 4.54023 24.7998 3.985 23.078C3.318 21.078 2.995 19.161 2.995 17.286C2.995 15.192 3.448 13.364 4.334 11.828C4.99077 10.6274 5.95641 9.62418 7.13099 8.92201C8.2693 8.21498 9.57723 7.82806 10.917 7.80201C11.386 7.80201 11.891 7.87001 12.427 8.00001C12.812 8.10901 13.281 8.28101 13.854 8.49501C14.583 8.77601 14.984 8.94801 15.12 8.99001C15.547 9.14601 15.906 9.21401 16.188 9.21401C16.402 9.21401 16.704 9.14601 17.047 9.04201C17.24 8.97401 17.604 8.85401 18.125 8.63101C18.641 8.44301 19.047 8.28201 19.37 8.16201C19.865 8.01601 20.344 7.88101 20.771 7.81301C21.2772 7.7332 21.7909 7.71206 22.302 7.75001C23.1876 7.80789 24.0599 7.99556 24.891 8.30701C26.25 8.85401 27.349 9.70801 28.167 10.922C27.8212 11.1351 27.4968 11.3809 27.198 11.656C26.5476 12.2326 25.9936 12.9095 25.557 13.661C24.9863 14.6881 24.6904 15.8451 24.698 17.02C24.719 18.463 25.089 19.734 25.818 20.833C26.3539 21.6475 27.0505 22.3441 27.865 22.88C28.282 23.161 28.641 23.354 28.985 23.484C28.824 23.984 28.652 24.468 28.449 24.948C27.9886 26.0244 27.4306 27.0564 26.782 28.031C26.204 28.87 25.751 29.495 25.407 29.911C24.871 30.546 24.355 31.031 23.834 31.369C23.261 31.749 22.584 31.952 21.896 31.952C21.43 31.9699 20.9642 31.9135 20.516 31.785C20.131 31.655 19.75 31.514 19.375 31.353C18.9851 31.1739 18.5831 31.0226 18.172 30.9C17.1557 30.639 16.0901 30.6373 15.073 30.895C14.656 31.015 14.255 31.155 13.859 31.327C13.302 31.561 12.932 31.718 12.718 31.785C12.291 31.91 11.848 31.988 11.4 32.014C10.707 32.014 10.061 31.816 9.42099 31.415L9.43799 31.401ZM18.578 6.78601C17.672 7.23901 16.807 7.43201 15.948 7.36901C15.813 6.50401 15.948 5.61901 16.307 4.65001C16.6126 3.82907 17.0642 3.07019 17.64 2.41001C18.248 1.71503 18.9858 1.14538 19.812 0.733008C20.692 0.280008 21.531 0.0350082 22.333 -0.000991821C22.437 0.905008 22.333 1.79601 22 2.75901C21.6918 3.61029 21.2411 4.40294 20.667 5.10301C20.0811 5.79894 19.362 6.37079 18.552 6.78501L18.578 6.78601Z" fill="black"/>
</g>
<defs>
<clipPath id="clip0_97_426">
<rect width="32" height="32" fill="white"/>
</clipPath>
</defs>
</svg>
