<svg width="20" height="20" viewBox="0 0 20 20" fill="none" xmlns="http://www.w3.org/2000/svg">
<path d="M13.9637 5.80073C13.9004 5.74021 13.8252 5.69219 13.7425 5.65943C13.6597 5.62667 13.571 5.6098 13.4814 5.6098C13.3918 5.6098 13.3031 5.62667 13.2203 5.65943C13.1375 5.69219 13.0624 5.74021 12.9991 5.80073L8.47038 10.1212C8.41986 10.1693 8.37978 10.2265 8.35243 10.2894C8.32508 10.3523 8.311 10.4197 8.311 10.4878C8.311 10.5559 8.32508 10.6233 8.35243 10.6862C8.37978 10.7491 8.41986 10.8062 8.47038 10.8543L12.9991 15.1748C13.2661 15.4296 13.6967 15.4296 13.9637 15.1748C14.2307 14.9201 14.2307 14.5093 13.9637 14.2546L10.0181 10.4852L13.9691 6.71579C14.2307 6.46623 14.2307 6.05029 13.9637 5.80073Z" fill="#1E232C" stroke="#1E232C" stroke-width="0.2"/>
</svg>
