<svg width="20" height="22" viewBox="0 0 20 22" fill="none" xmlns="http://www.w3.org/2000/svg">
<path d="M18 12.0857H18.3V11.7857V2.35714C18.3 2.04263 18.1405 1.76059 17.8925 1.56566C17.6461 1.37212 17.3245 1.27143 17 1.27143H3C2.67553 1.27143 2.35388 1.37212 2.10755 1.56566C1.85946 1.76059 1.7 2.04263 1.7 2.35714V11.7857V12.0857H2H18ZM2 13.0571H1.7V13.3571V19.6429C1.7 19.9574 1.85946 20.2394 2.10755 20.4343C2.35388 20.6279 2.67553 20.7286 3 20.7286H17C17.3245 20.7286 17.6461 20.6279 17.8925 20.4343C18.1405 20.2394 18.3 19.9574 18.3 19.6429V13.3571V13.0571H18H2ZM3 0.3H17C17.7364 0.3 18.4322 0.530435 18.936 0.926287C19.438 1.32076 19.7 1.83812 19.7 2.35714V19.6429C19.7 20.1619 19.438 20.6792 18.936 21.0737C18.4322 21.4696 17.7364 21.7 17 21.7H3C2.2636 21.7 1.56784 21.4696 1.06403 21.0737C0.561971 20.6792 0.3 20.1619 0.3 19.6429V2.35714C0.3 1.83812 0.561971 1.32076 1.06403 0.926287C1.56784 0.530435 2.2636 0.3 3 0.3Z" stroke="black" stroke-width="0.6"/>
<path d="M15.5237 15.3916L15.5237 15.3916L15.526 15.3934C15.5922 15.4448 15.6388 15.5021 15.6679 15.559C15.6967 15.6154 15.7088 15.672 15.7069 15.7264C15.705 15.7809 15.6889 15.8379 15.6553 15.8944C15.6214 15.9515 15.5696 16.008 15.4987 16.0573L15.4923 16.0618L15.4861 16.0665L14.7061 16.6715L14.4005 16.9086L14.7061 17.1456L15.4856 17.7502C15.4856 17.7503 15.4857 17.7504 15.4858 17.7504C15.5493 17.7999 15.5947 17.855 15.6238 17.9098C15.6527 17.9643 15.6658 18.0189 15.6658 18.0715C15.6658 18.124 15.6527 18.1786 15.6238 18.2331C15.5947 18.288 15.5492 18.3431 15.4856 18.3927L15.4856 18.3927L15.4837 18.3942C15.4207 18.4441 15.3421 18.4864 15.2512 18.5162C15.1604 18.5459 15.0612 18.5617 14.96 18.5617C14.8587 18.5617 14.7596 18.5459 14.6687 18.5162L14.5815 18.7826L14.6687 18.5162C14.5779 18.4865 14.4995 18.4442 14.4365 18.3944C14.4364 18.3943 14.4363 18.3942 14.4363 18.3942L13.6668 17.7817L13.48 17.633L13.2932 17.7817L12.5245 18.3935C12.4612 18.4426 12.3827 18.4842 12.2922 18.5132C12.2037 18.5416 12.1076 18.5568 12.0095 18.5572C11.8131 18.5439 11.6422 18.4727 11.5278 18.3724L11.5213 18.3666L11.5144 18.3613C11.4508 18.3117 11.4053 18.2566 11.3761 18.2017C11.3473 18.1472 11.3342 18.0925 11.3342 18.04C11.3342 17.9875 11.3473 17.9329 11.3761 17.8784C11.4052 17.8236 11.4506 17.7685 11.5141 17.719C11.5142 17.7189 11.5143 17.7189 11.5144 17.7188L12.2938 17.1142L12.5995 16.8772L12.2938 16.6401L11.5147 16.0357C11.3874 15.9355 11.3359 15.8172 11.3359 15.7143C11.3359 15.6112 11.3876 15.4927 11.5153 15.3924C11.6448 15.2906 11.8329 15.2254 12.04 15.2254C12.2467 15.2254 12.4345 15.2904 12.564 15.3918L13.3332 16.004L13.52 16.1527L13.7068 16.004L14.4763 15.3916C14.4763 15.3915 14.4764 15.3915 14.4765 15.3914C14.5395 15.3416 14.6179 15.2993 14.7087 15.2696C14.7996 15.2398 14.8987 15.224 15 15.224C15.1012 15.224 15.2004 15.2398 15.2912 15.2696C15.3821 15.2993 15.4607 15.3417 15.5237 15.3916Z" stroke="black" stroke-width="0.6"/>
<path d="M7.39726 15.478L7.41574 15.4566C7.51809 15.3723 7.66275 15.3091 7.83194 15.2885C8.02179 15.2654 8.21195 15.2998 8.36266 15.3783C8.51339 15.4568 8.60035 15.5654 8.63287 15.6669C8.66276 15.7602 8.65173 15.8611 8.58984 15.958L6.60129 18.3016L6.60129 18.3016L6.60012 18.303C6.54328 18.3708 6.46034 18.433 6.35392 18.4783C6.24778 18.5235 6.12578 18.5487 5.99937 18.5493H5.94812C5.81672 18.5417 5.69341 18.5078 5.59027 18.4541C5.48528 18.3994 5.40957 18.3288 5.36307 18.256C5.36305 18.2559 5.36302 18.2559 5.36299 18.2558L4.37042 16.6961C4.32176 16.5983 4.32113 16.4958 4.36669 16.399C4.41609 16.2939 4.52472 16.188 4.69274 16.1213C4.86028 16.0547 5.05858 16.0393 5.2438 16.0813C5.42434 16.1221 5.56298 16.2103 5.6448 16.312L5.86695 16.6611L6.08367 17.0016L6.34726 16.6959L7.39726 15.478Z" stroke="black" stroke-width="0.6"/>
<path d="M6 4.41428H5.7V4.71428V5.5V5.8H6H7H7.3V5.5V4.71428V4.41428H7H6ZM8 6.77142H5C4.79403 6.77142 4.60698 6.70655 4.47824 6.6054C4.35126 6.50563 4.3 6.38797 4.3 6.28571V3.92857C4.3 3.82631 4.35126 3.70865 4.47824 3.60888C4.60698 3.50773 4.79403 3.44285 5 3.44285H8C8.20597 3.44285 8.39302 3.50773 8.52176 3.60888C8.64874 3.70865 8.7 3.82631 8.7 3.92857V6.28571C8.7 6.38797 8.64874 6.50563 8.52176 6.6054C8.39302 6.70655 8.20597 6.77142 8 6.77142Z" stroke="black" stroke-width="0.6"/>
<path d="M15 9.91428H5C4.79403 9.91428 4.60698 9.84941 4.47824 9.74826C4.35126 9.64848 4.3 9.53082 4.3 9.42857C4.3 9.32631 4.35126 9.20865 4.47824 9.10888C4.60698 9.00773 4.79403 8.94285 5 8.94285H15C15.206 8.94285 15.393 9.00773 15.5218 9.10888C15.6487 9.20865 15.7 9.32631 15.7 9.42857C15.7 9.53083 15.6487 9.64848 15.5218 9.74826C15.393 9.84941 15.206 9.91428 15 9.91428Z" stroke="black" stroke-width="0.6"/>
<path d="M15 4.41428H12C11.794 4.41428 11.607 4.34941 11.4782 4.24826C11.3513 4.14848 11.3 4.03083 11.3 3.92857C11.3 3.82631 11.3513 3.70865 11.4782 3.60888C11.607 3.50773 11.794 3.44285 12 3.44285H15C15.206 3.44285 15.393 3.50773 15.5218 3.60888C15.6487 3.70865 15.7 3.82631 15.7 3.92857C15.7 4.03083 15.6487 4.14848 15.5218 4.24826C15.393 4.34941 15.206 4.41428 15 4.41428Z" stroke="black" stroke-width="0.6"/>
<path d="M15 6.77143H12C11.794 6.77143 11.607 6.70655 11.4782 6.6054C11.3513 6.50563 11.3 6.38797 11.3 6.28571C11.3 6.18346 11.3513 6.0658 11.4782 5.96603C11.607 5.86487 11.794 5.8 12 5.8H15C15.206 5.8 15.393 5.86487 15.5218 5.96603C15.6487 6.0658 15.7 6.18346 15.7 6.28571C15.7 6.38797 15.6487 6.50563 15.5218 6.6054C15.393 6.70655 15.206 6.77143 15 6.77143Z" stroke="black" stroke-width="0.6"/>
</svg>
