<svg width="28" height="32" viewBox="0 0 28 32" fill="none" xmlns="http://www.w3.org/2000/svg">
<path d="M0 22.5V1.5C0 0.66875 0.668751 0 1.5 0H22C25.3125 0 28 2.6875 28 6V26C28 29.3125 25.3125 32 22 32H1.5C0.668751 32 0 31.3312 0 30.5V29.5C0 29.0312 0.21875 28.6062 0.55625 28.3312C0.81875 27.3687 0.81875 24.625 0.55625 23.6625C0.21875 23.3938 0 22.9688 0 22.5ZM20 8.375C20 8.16875 19.8313 8 19.625 8H6.375C6.16875 8 6 8.16875 6 8.375V9.625C6 9.83125 6.16875 10 6.375 10H19.625C19.8313 10 20 9.83125 20 9.625V8.375ZM20 12.375C20 12.1687 19.8313 12 19.625 12H6.375C6.16875 12 6 12.1687 6 12.375V13.625C6 13.8313 6.16875 14 6.375 14H19.625C19.8313 14 20 13.8313 20 13.625V12.375ZM4.1625 28H22C23.1062 28 24 27.1063 24 26C24 24.9 23.1 24 22 24H4.1625C4.28125 25.0688 4.28125 26.9312 4.1625 28Z" fill="#00BE85"/>
</svg>
