<svg width="30" height="30" viewBox="0 0 30 30" fill="none" xmlns="http://www.w3.org/2000/svg">
<path d="M6.90169 18.0346L5.88907 21.8148L2.18799 21.8931C1.08192 19.8416 0.454529 17.4944 0.454529 15C0.454529 12.5881 1.04112 10.3135 2.08089 8.31073H2.08169L5.37669 8.91482L6.8201 12.19C6.51799 13.0708 6.35334 14.0162 6.35334 15C6.35345 16.0678 6.54686 17.0908 6.90169 18.0346Z" fill="#FBBB00"/>
<path d="M29.2913 12.2827C29.4583 13.1626 29.5454 14.0712 29.5454 14.9999C29.5454 16.0413 29.436 17.0571 29.2274 18.0369C28.5193 21.3712 26.6691 24.2827 24.1061 26.343L24.1053 26.3422L19.9551 26.1305L19.3677 22.4637C21.0684 21.4663 22.3975 19.9055 23.0976 18.0369H15.3198V12.2827H23.2111H29.2913Z" fill="#518EF8"/>
<path d="M24.1053 26.3423L24.1061 26.3431C21.6134 28.3467 18.4469 29.5455 15 29.5455C9.46071 29.5455 4.64475 26.4494 2.18799 21.8931L6.90168 18.0346C8.13003 21.3129 11.2925 23.6466 15 23.6466C16.5936 23.6466 18.0865 23.2158 19.3676 22.4638L24.1053 26.3423Z" fill="#28B446"/>
<path d="M24.2843 3.80318L19.5722 7.66091C18.2464 6.83216 16.6791 6.35341 15 6.35341C11.2086 6.35341 7.98701 8.79415 6.82019 12.19L2.08173 8.31068H2.08093C4.50173 3.64335 9.37843 0.454544 15 0.454544C18.5293 0.454544 21.7653 1.7117 24.2843 3.80318Z" fill="#F14336"/>
</svg>
