<svg width="21" height="21" viewBox="0 0 21 21" fill="none" xmlns="http://www.w3.org/2000/svg">
<path d="M14.875 16.1263H11.375L7.48125 18.7162C7.34984 18.8038 7.19712 18.8541 7.03938 18.8617C6.88163 18.8693 6.72478 18.834 6.58556 18.7594C6.44633 18.6849 6.32996 18.5739 6.24885 18.4384C6.16774 18.3029 6.12493 18.1479 6.125 17.99V16.1263C3.5 16.1263 1.75 14.3763 1.75 11.7513V6.50125C1.75 3.87625 3.5 2.12625 6.125 2.12625H14.875C17.5 2.12625 19.25 3.87625 19.25 6.50125V11.7513C19.25 14.3763 17.5 16.1263 14.875 16.1263Z" stroke="white" stroke-width="1.5" stroke-miterlimit="10" stroke-linecap="round" stroke-linejoin="round"/>
<path d="M10.5001 9.94V9.75625C10.5001 9.16125 10.8676 8.84625 11.2351 8.5925C11.5939 8.3475 11.9526 8.0325 11.9526 7.455C11.9526 6.65 11.3051 6.0025 10.5001 6.0025C9.69511 6.0025 9.04761 6.65 9.04761 7.455M10.4957 12.0312H10.5045" stroke="white" stroke-width="1.5" stroke-linecap="round" stroke-linejoin="round"/>
</svg>
