<svg width="21" height="21" viewBox="0 0 21 21" fill="none" xmlns="http://www.w3.org/2000/svg">
<path d="M10.5 13.125C11.1962 13.125 11.8639 12.8484 12.3562 12.3562C12.8484 11.8639 13.125 11.1962 13.125 10.5C13.125 9.80381 12.8484 9.13613 12.3562 8.64384C11.8639 8.15156 11.1962 7.875 10.5 7.875C9.80381 7.875 9.13613 8.15156 8.64384 8.64384C8.15156 9.13613 7.875 9.80381 7.875 10.5C7.875 11.1962 8.15156 11.8639 8.64384 12.3562C9.13613 12.8484 9.80381 13.125 10.5 13.125Z" stroke="white" stroke-width="1.5" stroke-miterlimit="10" stroke-linecap="round" stroke-linejoin="round"/>
<path d="M1.75 11.27V9.73C1.75 8.82 2.49375 8.0675 3.4125 8.0675C4.99625 8.0675 5.64375 6.9475 4.8475 5.57375C4.3925 4.78625 4.66375 3.7625 5.46 3.3075L6.97375 2.44125C7.665 2.03 8.5575 2.275 8.96875 2.96625L9.065 3.1325C9.8525 4.50625 11.1475 4.50625 11.9437 3.1325L12.04 2.96625C12.4512 2.275 13.3437 2.03 14.035 2.44125L15.5487 3.3075C16.345 3.7625 16.6162 4.78625 16.1612 5.57375C15.365 6.9475 16.0125 8.0675 17.5962 8.0675C18.5062 8.0675 19.2587 8.81125 19.2587 9.73V11.27C19.2587 12.18 18.515 12.9325 17.5962 12.9325C16.0125 12.9325 15.365 14.0525 16.1612 15.4262C16.6162 16.2225 16.345 17.2375 15.5487 17.6925L14.035 18.5588C13.3437 18.97 12.4512 18.725 12.04 18.0338L11.9437 17.8675C11.1562 16.4938 9.86125 16.4938 9.065 17.8675L8.96875 18.0338C8.5575 18.725 7.665 18.97 6.97375 18.5588L5.46 17.6925C5.07859 17.4729 4.79988 17.1109 4.68505 16.6861C4.57022 16.2612 4.62864 15.8081 4.8475 15.4262C5.64375 14.0525 4.99625 12.9325 3.4125 12.9325C2.49375 12.9325 1.75 12.18 1.75 11.27Z" stroke="white" stroke-width="1.5" stroke-miterlimit="10" stroke-linecap="round" stroke-linejoin="round"/>
</svg>
